<svg id="Camada_1" data-name="Camada 1" xmlns="http://www.w3.org/2000/svg" viewBox="0 0 117.9 117.9">
  <defs>
    <style>
      .logo-light-bg { fill: #fff; }
      .logo-light-icon { fill: #171717; }
    </style>
  </defs>
  <rect class="logo-light-bg" x="0" y="0" width="117.9" height="117.9" rx="58.95" ry="58.95"/>
  <path class="logo-light-icon" d="m111.59,59.07c-4.12,1.87-6.68,5-8.1,8.98-.77,2.17-.99,4.53-1.54,6.78-.3,1.23-.7,2.44-1.19,3.6-.41.96-1.24,1.47-2.33,1.43-1.14-.04-2-.65-2.29-1.69-.53-1.89-.94-3.82-1.29-5.76-.41-2.21-.83-4.4-2.17-6.29-1.54-2.18-3.99-2.39-5.6-.23-1.25,1.67-2.31,3.54-3.11,5.47-2.94,7.07-4.2,14.56-5.26,22.09-.29,2.04-.53,4.04-1.84,5.82-1.59,2.16-5.52,2.27-6.56-.42-.8-2.06-1.56-4.23-1.76-6.41-.46-5.1-1.56-10.07-2.91-14.97-.83-3.03-2.15-5.92-3.32-8.85-.66-1.66-2.05-2.16-3.74-2.09-1.59.07-2.59.92-3.24,2.3-2.03,4.31-3.42,8.84-4.33,13.5-.75,3.83-1.22,7.71-1.93,11.54-.28,1.54-.73,3.08-1.35,4.51-1.19,2.75-5.1,3.76-6.99.38-.83-1.48-1.34-3.25-1.57-4.94-1.02-7.72-2.41-15.35-5.39-22.59-.71-1.74-1.62-3.41-2.63-5-1.59-2.51-4.49-2.46-6.13.02-1.52,2.31-1.84,4.99-2.33,7.62-.24,1.29-.45,2.6-.86,3.84-.48,1.44-1.64,2.27-2.81,2.21-1.43-.07-2.11-1.08-2.42-2.26-.5-1.86-.91-3.75-1.21-5.65-.89-5.65-3.69-9.98-8.71-12.8-.11-.06-.2-.15-.38-.29.76-.45,1.49-.82,2.16-1.29,4.56-3.12,6.45-7.69,7.13-12.96.19-1.51.55-3.03,1.04-4.47.39-1.17,1.1-2.3,2.6-2.25,1.48.05,2.35,1.1,2.68,2.37.56,2.12.77,4.32,1.34,6.43.48,1.76,1.09,3.52,1.96,5.12,1.15,2.11,4.4,2.15,5.75.12,1.08-1.64,2.02-3.39,2.84-5.18,2.06-4.46,3-9.26,3.94-14.03.68-3.44,1.09-6.94,1.61-10.41.27-1.81,1.02-3.35,2.5-4.48,1.57-1.2,3.2-1.15,4.65.22,1.72,1.63,2.44,3.76,2.64,6.03.47,5.27,1.33,10.46,2.89,15.51,1.04,3.34,2.36,6.6,3.64,9.86.57,1.47,1.98,1.85,3.37,1.89,1.45.03,2.61-.62,3.28-2.01,1.93-4.01,3.46-8.16,4.23-12.56.75-4.27,1.36-8.57,2.15-12.83.29-1.57.77-3.17,1.5-4.6,1.48-2.93,4.51-3.16,6.68-.69,1.29,1.48,1.51,3.31,1.83,5.13.98,5.48,1.78,11.01,3.05,16.43.95,4.05,2.52,7.94,4.85,11.47,1.55,2.35,4.68,2.35,6.19,0,1.55-2.41,1.85-5.17,2.3-7.9.19-1.16.39-2.35.78-3.46.43-1.23,1.15-2.35,2.67-2.39,1.55-.04,2.25,1.11,2.68,2.33.45,1.28.84,2.61.97,3.95.57,5.83,3.2,11.58,9.4,14.81Z"/>
</svg>
